<?xml version="1.0" standalone="no"?>
<!DOCTYPE svg PUBLIC "-//W3C//DTD SVG 20010904//EN"
 "http://www.w3.org/TR/2001/REC-SVG-20010904/DTD/svg10.dtd">
<svg version="1.0" xmlns="http://www.w3.org/2000/svg"
 width="284.000000pt" height="284.000000pt" viewBox="0 0 284.000000 284.000000"
 preserveAspectRatio="xMidYMid meet">
<metadata>
Created by potrace 1.14, written by Peter Selinger 2001-2017
</metadata>
<g transform="translate(0.000000,284.000000) scale(0.100000,-0.100000)"
fill="#000000" stroke="none">
<path d="M1360 2755 c-29 -30 -40 -35 -82 -35 l-48 0 0 -48 c0 -41 -5 -53 -30
-77 -16 -16 -30 -34 -30 -40 0 -6 14 -24 30 -40 25 -24 30 -36 30 -77 l0 -48
47 0 c41 0 52 -5 85 -37 l39 -38 35 38 c31 33 41 37 85 37 l49 0 0 48 c0 42 5
52 35 82 l35 34 -35 36 c-30 31 -35 43 -35 83 l0 47 -48 0 c-42 0 -53 5 -82
35 -19 19 -37 35 -40 35 -3 0 -21 -16 -40 -35z m109 -80 c12 -11 8 -13 -25 -9
-51 6 -85 -12 -108 -59 -24 -51 -15 -97 26 -132 27 -23 39 -26 75 -22 54 6 56
-9 3 -23 -83 -22 -163 29 -176 112 -7 46 31 116 76 140 39 21 104 18 129 -7z
m13 -67 c2 -18 9 -23 31 -22 32 1 35 -8 6 -27 -17 -12 -19 -18 -10 -42 11 -29
1 -36 -19 -12 -16 20 -29 19 -53 -2 -19 -18 -19 -17 -13 14 6 26 3 34 -13 45
-30 18 -26 28 8 22 24 -5 29 -2 35 20 8 32 23 34 28 4z"/>
<path d="M1820 2630 c0 -3 17 -15 38 -25 20 -10 30 -20 22 -21 -8 -1 -54 -8
-102 -14 -132 -18 -131 -17 -69 -140 49 -94 51 -101 29 -94 -45 14 -92 23
-100 18 -19 -12 -5 -34 40 -60 224 -130 340 -295 357 -504 5 -58 2 -92 -14
-151 -19 -73 -71 -192 -89 -203 -4 -2 -27 4 -51 15 -24 10 -61 19 -83 19 -22
0 -85 12 -141 26 -96 24 -131 26 -184 9 -38 -12 -27 12 18 40 25 16 47 24 60
20 30 -10 36 22 8 51 -43 46 -105 66 -186 61 -45 -2 -83 1 -102 9 -22 9 -31
10 -34 1 -5 -14 12 -56 30 -75 7 -7 13 -17 13 -22 0 -5 9 -12 20 -15 16 -5 19
-12 14 -28 -12 -42 -27 -50 -64 -35 -30 12 -43 11 -119 -10 -47 -13 -104 -27
-126 -31 -22 -5 -53 -13 -68 -20 -45 -18 -51 -14 -81 47 -52 106 -66 159 -66
258 0 210 113 397 309 514 80 48 87 55 72 74 -9 10 -21 12 -49 5 -28 -6 -41
-4 -51 6 -13 13 -12 18 8 39 13 14 21 29 17 34 -3 5 4 32 14 61 l20 51 -26 10
c-14 6 -33 10 -43 10 -10 0 -25 10 -33 21 -12 18 -17 20 -35 11 -17 -9 -22 -9
-27 4 -4 11 -13 13 -27 9 -13 -5 -25 -2 -29 6 -7 10 -16 10 -49 -3 -24 -10
-43 -12 -47 -7 -7 12 -109 -42 -151 -81 -17 -15 -39 -40 -48 -54 -10 -15 -27
-26 -39 -26 -22 0 -83 -39 -97 -62 -7 -10 -11 -10 -21 0 -19 19 -24 15 -54
-53 -16 -35 -35 -65 -41 -65 -7 0 -13 -9 -13 -20 0 -35 -21 -67 -56 -84 -21
-9 -34 -22 -32 -31 5 -23 -64 -125 -84 -125 -15 0 -18 -10 -18 -70 0 -65 -3
-73 -41 -130 -23 -33 -43 -74 -45 -92 -2 -18 -9 -69 -15 -113 -6 -44 -9 -114
-6 -155 11 -148 12 -232 5 -236 -13 -8 -9 -38 11 -76 18 -36 18 -37 -2 -56
-20 -20 -20 -20 12 -36 25 -13 44 -43 95 -144 35 -70 82 -151 105 -179 64 -81
82 -115 70 -130 -8 -9 -5 -15 15 -24 27 -13 33 -24 16 -34 -19 -12 -10 -21 41
-39 27 -10 57 -29 65 -42 9 -13 31 -28 50 -34 38 -13 38 -13 24 -40 -9 -17 -5
-23 27 -43 21 -14 45 -32 53 -42 19 -23 71 -45 106 -45 22 0 24 -3 15 -14 -10
-12 -4 -19 33 -41 27 -16 64 -28 88 -29 32 -2 44 -7 46 -20 3 -13 10 -16 28
-12 17 5 24 2 24 -9 0 -18 14 -19 41 -4 16 8 23 7 32 -4 12 -15 292 -88 302
-79 3 3 5 18 5 34 0 30 30 68 55 68 22 0 52 -38 60 -76 5 -29 9 -33 28 -29 12
3 78 19 146 34 68 16 126 33 130 39 3 5 33 12 66 15 74 6 217 57 210 75 -3 8
30 30 90 60 53 25 94 51 91 57 -2 6 38 42 90 80 62 46 88 71 77 74 -12 2 6 24
62 77 47 44 73 74 63 74 -13 0 -3 20 37 75 29 41 59 92 66 112 6 21 25 64 40
95 16 32 29 63 29 69 0 6 20 67 45 136 25 68 45 126 45 128 0 2 -7 2 -15 -1
-11 -5 -13 1 -7 33 18 100 0 416 -28 478 -27 59 -38 101 -51 193 -11 69 -15
81 -29 77 -13 -4 -26 14 -58 84 -23 49 -42 95 -42 102 0 10 -3 10 -12 1 -10
-10 -22 2 -55 55 -24 36 -43 71 -43 76 0 5 -6 7 -14 4 -9 -4 -41 25 -88 79
-40 46 -74 80 -76 74 -5 -14 -91 43 -137 89 -44 46 -56 51 -48 20 5 -16 2 -20
-8 -16 -79 32 -259 72 -259 57z m226 -85 c84 -37 123 -116 61 -123 -31 -4 -64
26 -126 113 -32 45 -33 47 -10 40 13 -4 47 -17 75 -30z m-1071 -5 c18 7 25 6
25 -3 0 -13 -28 -14 -68 -1 -18 5 -20 9 -10 15 8 5 16 3 21 -6 6 -11 14 -12
32 -5z m-166 -17 c-13 -16 -24 -29 -24 -29 0 -1 -11 -5 -23 -9 -21 -6 -23 -4
-17 17 6 21 4 21 -21 -7 -15 -16 -37 -34 -48 -40 -12 -5 -31 -30 -44 -55 -12
-25 -20 -34 -16 -20 21 82 86 143 174 161 19 4 37 7 39 8 3 0 -6 -11 -20 -26z
m75 -8 c-14 -22 -14 -25 -1 -25 8 0 19 6 25 13 11 13 147 16 159 3 3 -3 -5
-22 -17 -43 -14 -23 -18 -39 -11 -41 18 -6 12 -18 -15 -31 -25 -11 -26 -13 -9
-31 16 -17 16 -19 -2 -28 -20 -11 -73 -5 -73 8 0 22 14 40 30 40 11 0 22 5 25
10 3 6 -5 10 -19 10 -35 0 -40 15 -11 34 29 19 34 42 8 31 -50 -20 -53 -19
-46 16 6 33 6 34 -14 17 -20 -18 -53 -24 -53 -10 0 9 29 52 36 52 2 0 -3 -11
-12 -25z m1095 -9 c36 -35 39 -61 10 -77 -38 -20 -94 -4 -169 49 -82 58 -79
61 52 59 70 -2 79 -5 107 -31z m-215 -14 c21 -15 43 -34 47 -42 36 -71 48
-105 38 -115 -21 -21 -62 20 -109 106 -50 92 -47 100 24 51z m-936 8 c-7 -10
-14 -17 -17 -15 -4 4 18 35 25 35 2 0 -1 -9 -8 -20z m1409 -62 c41 -42 57 -83
43 -109 -18 -33 -60 -17 -86 34 -15 29 -44 120 -44 140 0 12 49 -25 87 -65z
m-1349 6 c29 -6 41 -38 31 -82 -4 -18 -3 -47 2 -64 7 -28 4 -34 -36 -74 -41
-41 -63 -52 -78 -38 -3 3 -1 17 5 30 8 18 7 28 -4 46 -14 22 -14 26 3 47 31
39 25 52 -21 45 -37 -6 -40 -5 -51 22 -10 28 -11 28 -25 10 -8 -11 -14 -37
-14 -58 0 -45 -11 -48 -39 -12 -40 50 -20 109 40 119 22 4 41 11 45 16 5 8 87
4 142 -7z m1124 -131 c17 -15 26 -63 11 -63 -16 0 -119 55 -130 69 -6 9 -18
32 -26 52 l-14 36 71 -39 c39 -21 78 -46 88 -55z m84 76 c84 -21 67 -63 -22
-55 -45 4 -154 47 -154 61 0 10 132 5 176 -6z m-1545 -15 c-18 -13 -20 -18
-10 -25 8 -4 16 -3 20 2 3 6 9 -1 13 -16 5 -20 11 -25 26 -20 17 5 18 3 8 -31
-7 -27 -7 -39 2 -44 15 -9 -35 -70 -58 -70 -13 0 -12 4 5 23 33 37 39 51 15
38 -12 -6 -24 -16 -27 -21 -10 -17 -35 -11 -35 8 0 9 9 32 21 51 11 18 18 35
16 38 -9 8 -47 -40 -59 -74 -15 -41 -32 -43 -26 -3 3 17 1 30 -3 30 -12 0 -20
-36 -14 -63 4 -14 2 -28 -4 -32 -13 -7 -54 37 -41 45 4 3 10 16 14 30 17 58
29 81 37 69 5 -10 20 0 52 34 24 26 50 47 57 47 9 0 5 -7 -9 -16z m1817 -41
c39 -51 51 -75 54 -110 2 -35 -8 -53 -31 -53 -36 0 -73 72 -86 168 -7 52 -6
53 13 43 11 -6 33 -28 50 -48z m-1591 2 c32 6 34 5 24 -13 -6 -11 -18 -23 -27
-26 -15 -6 -14 -9 6 -31 13 -14 21 -28 18 -31 -9 -8 -48 14 -48 27 0 6 -9 22
-19 35 -11 15 -17 33 -14 45 5 19 7 20 15 4 8 -13 18 -15 45 -10z m333 -19 c0
-2 -17 -15 -38 -29 -115 -76 -228 -201 -277 -307 l-30 -65 0 -192 c0 -105 -1
-190 -2 -189 -2 1 -12 38 -23 82 -24 91 -28 251 -9 329 38 158 141 273 306
345 75 32 73 32 73 26z m777 -83 c95 -63 156 -146 192 -267 28 -91 29 -252 2
-355 -11 -40 -21 -74 -23 -76 -1 -2 -1 62 0 141 6 247 -32 360 -167 486 -42
40 -101 89 -129 108 -28 19 -52 38 -52 42 0 12 123 -43 177 -79z m346 63 c40
-17 74 -53 61 -65 -10 -10 -35 -14 -70 -12 -19 1 -108 54 -138 82 -16 15 112
10 147 -5z m-1263 -16 c-8 -5 -17 -7 -19 -4 -3 3 1 9 9 14 8 5 17 7 19 4 3 -3
-1 -9 -9 -14z m-308 -5 c0 -5 -5 -11 -11 -13 -6 -2 -11 4 -11 13 0 9 5 15 11
13 6 -2 11 -8 11 -13z m1274 -9 c98 -40 172 -117 112 -116 -27 1 -50 14 -106
59 -36 29 -80 81 -69 81 2 0 30 -11 63 -24z m212 -48 c2 -10 8 -18 13 -18 5 0
17 -16 26 -35 16 -33 16 -37 1 -52 -16 -15 -19 -15 -42 1 -27 17 -68 89 -80
139 l-7 29 42 -24 c23 -12 44 -31 47 -40z m-1418 12 c-20 -13 -33 -13 -25 0 3
6 14 10 23 10 15 0 15 -2 2 -10z m1786 -97 c19 -45 18 -122 -1 -130 -42 -16
-83 92 -69 182 l6 46 25 -33 c14 -18 31 -47 39 -65z m-1845 33 c-9 -5 -26 -18
-39 -30 -19 -17 -25 -18 -32 -6 -6 9 -1 23 13 41 12 14 24 25 26 23 2 -2 -4
-13 -14 -24 -24 -27 -16 -31 18 -10 17 11 24 20 18 24 -6 4 -11 11 -11 17 0 5
8 1 18 -8 16 -16 16 -19 3 -27z m90 9 c-4 -17 -6 -18 -9 -2 -4 19 -11 21 -30
8 -17 -11 20 -24 61 -21 l28 2 -15 -31 c-24 -46 -125 -150 -126 -128 0 9 11
23 25 29 37 17 31 24 -17 20 l-43 -3 74 38 c41 21 77 45 79 53 4 12 1 12 -19
-1 -29 -19 -128 -53 -135 -46 -3 3 11 21 30 41 20 19 36 40 36 45 0 10 24 18
51 17 11 0 14 -6 10 -21z m1524 10 c90 -24 158 -86 127 -117 -26 -26 -104 17
-171 95 -38 42 -37 43 44 22z m-1880 -53 c-6 -7 -34 29 -34 43 0 6 9 -1 20
-14 11 -13 17 -26 14 -29z m156 -1 c16 -16 29 -36 29 -44 0 -8 14 -31 30 -52
17 -21 30 -46 30 -57 0 -23 -86 -108 -109 -108 -18 0 -41 18 -41 32 0 4 16 10
35 14 43 8 41 25 -3 38 -20 6 -35 20 -43 38 -14 35 -26 35 -41 1 -7 -16 -13
-30 -15 -32 -1 -2 -14 4 -27 13 -14 9 -34 16 -44 16 -17 0 -18 5 -12 38 9 50
17 62 40 62 11 0 25 7 32 16 37 45 50 54 79 54 20 0 40 -10 60 -29z m-198 0
c-3 -12 -11 -17 -19 -14 -11 4 -13 -2 -8 -25 4 -18 0 -40 -10 -58 -8 -16 -16
-24 -16 -19 -1 6 -3 31 -5 56 -4 43 -2 47 28 61 18 9 33 16 34 17 0 0 -1 -8
-4 -18z m1921 -63 c29 -53 33 -99 11 -118 -35 -29 -75 46 -75 142 0 62 0 62
19 43 11 -11 31 -41 45 -67z m-173 32 c43 -12 94 -62 86 -84 -15 -37 -81 -7
-131 59 -30 39 -23 44 45 25z m495 -86 c24 -55 29 -131 10 -159 -19 -28 -38
-32 -56 -10 -9 11 -10 43 -5 127 7 102 9 110 22 92 8 -10 21 -33 29 -50z
m-213 20 c50 -17 107 -72 107 -104 0 -52 -58 -25 -124 59 -26 34 -43 61 -38
61 4 0 29 -7 55 -16z m-2097 -44 c22 -33 29 -38 44 -30 25 13 30 13 24 -3 -3
-8 2 -20 11 -27 8 -7 15 -19 15 -26 0 -8 9 -14 20 -14 11 0 20 -2 20 -5 0 -10
-48 -81 -64 -94 -25 -21 -31 11 -12 59 9 22 12 40 7 40 -5 0 -12 -8 -16 -19
-3 -10 -14 -26 -25 -36 -19 -18 -20 -17 -20 8 0 39 -21 127 -30 127 -4 0 -6
-30 -3 -67 l4 -68 -35 39 c-32 35 -50 76 -27 62 5 -4 14 6 19 21 6 16 11 22
11 14 1 -11 4 -11 16 -1 8 6 19 9 25 5 13 -8 13 1 -1 27 -11 21 -12 21 -25 3
-8 -10 -14 -14 -14 -9 0 9 20 34 27 34 1 0 15 -18 29 -40z m188 -25 c5 -19 13
-25 34 -26 24 0 25 -1 7 -9 -35 -15 -101 -11 -116 7 -13 15 -11 16 13 10 24
-6 28 -4 34 18 8 32 20 32 28 0z m1890 -28 c1 -7 10 -26 19 -44 31 -59 15
-153 -24 -138 -9 3 -21 17 -28 31 -12 26 -15 143 -5 182 l7 23 14 -21 c8 -12
16 -27 17 -33z m-139 8 c34 -19 53 -43 71 -85 2 -3 -1 -12 -5 -19 -15 -23 -64
13 -109 79 -38 55 -40 61 -20 55 13 -4 41 -17 63 -30z m-1534 -143 c5 -99 13
-156 29 -207 13 -38 24 -90 27 -115 l3 -45 -29 55 c-83 153 -120 361 -78 439
30 54 41 26 48 -127z m1466 126 c39 -73 6 -274 -69 -421 -43 -84 -46 -56 -8
88 24 95 30 137 30 225 0 146 12 173 47 108z m-1554 -48 c-12 -21 -25 -30 -43
-29 -23 0 -23 1 -5 8 11 5 29 18 39 30 27 29 30 26 9 -9z m-403 -15 c0 -5 -5
-3 -10 5 -5 8 -10 20 -10 25 0 6 5 3 10 -5 5 -8 10 -19 10 -25z m2262 11 c45
-19 84 -60 91 -94 6 -33 1 -42 -22 -42 -22 0 -37 17 -85 93 -39 61 -38 65 16
43z m208 -126 c0 -25 -7 -55 -15 -67 -17 -24 -64 -36 -71 -18 -6 16 11 91 37
161 l22 58 13 -44 c8 -25 14 -65 14 -90z m-2430 75 c7 -8 22 -15 34 -15 27 0
46 -18 46 -43 0 -11 11 -28 25 -39 34 -26 34 -76 0 -108 -14 -13 -28 -20 -32
-16 -4 3 3 13 15 22 12 8 22 19 22 24 0 14 -35 21 -61 11 -20 -7 -28 -4 -50
22 l-25 30 -13 -31 c-16 -39 -30 -40 -70 -6 -37 31 -38 44 -9 87 55 78 89 97
118 62z m288 -7 c37 13 38 12 15 -31 -16 -30 -18 -30 -21 -9 -4 26 -14 28 -47
6 -36 -23 -50 -8 -23 25 20 23 25 25 34 13 9 -12 17 -13 42 -4z m1818 -81 c24
-29 32 -81 14 -92 -31 -19 -83 39 -113 129 -9 27 -17 51 -17 53 0 9 94 -64
116 -90z m-1935 65 c-5 -10 -18 -25 -27 -33 -11 -9 -9 -2 6 19 26 35 36 42 21
14z m1819 -65 c0 -31 -10 -75 -23 -107 -27 -66 -117 -220 -129 -220 -15 0 -8
27 26 101 19 41 46 117 61 169 15 52 32 101 37 107 18 22 28 3 28 -50z m-1630
34 c5 -11 24 -61 41 -113 17 -51 46 -125 64 -164 43 -95 30 -114 -23 -32 -74
115 -112 206 -112 270 0 59 11 73 30 39z m1846 -37 c19 -66 12 -119 -17 -135
-33 -17 -52 6 -45 56 6 37 37 135 43 135 1 0 10 -25 19 -56z m-1989 -2 c-23
-25 -22 -29 13 -34 20 -3 30 0 30 8 0 7 4 15 9 18 4 3 0 -29 -9 -72 -10 -42
-20 -85 -22 -95 -3 -17 -4 -17 -23 -2 -17 14 -17 16 -2 11 24 -8 21 13 -3 22
-20 7 -19 9 10 30 16 12 30 27 30 33 0 6 -12 1 -26 -10 -24 -18 -54 -28 -54
-17 0 2 7 16 14 32 9 17 12 33 7 43 -6 10 -2 20 13 32 27 24 33 24 13 1z
m2078 -50 c23 -34 24 -38 8 -49 -9 -7 -23 -13 -30 -13 -17 0 -43 59 -43 95 0
23 2 24 20 15 11 -6 31 -27 45 -48z m-2125 11 c0 -10 -5 -25 -10 -33 -7 -11
-10 -7 -10 18 0 17 5 32 10 32 6 0 10 -8 10 -17z m2309 -30 c-1 -25 -3 -30 -6
-15 -3 18 -8 21 -17 13 -7 -6 -11 -22 -8 -36 5 -27 17 -33 25 -12 4 9 6 9 6
-1 1 -15 -112 -70 -199 -97 -30 -10 -85 -28 -122 -40 l-66 -22 3 40 c4 50 9
53 190 113 90 29 149 54 165 70 13 13 26 24 27 24 2 0 2 -17 2 -37z m-2534
-34 c57 -15 182 -58 237 -81 44 -19 46 -22 50 -64 3 -45 0 -52 -17 -35 -6 6
-49 21 -97 35 -96 28 -221 77 -256 102 -12 8 -22 23 -21 32 0 12 3 11 9 -5 13
-32 30 -28 30 6 0 32 -15 50 -23 29 -3 -7 -6 0 -6 15 l-1 28 28 -26 c15 -14
45 -30 67 -36z m51 4 c-12 -12 -29 15 -21 34 7 17 8 16 18 -5 5 -12 7 -25 3
-29z m1112 27 c90 3 112 1 112 -7 0 -5 -43 -8 -95 -8 -81 0 -93 -2 -78 -13 11
-8 32 -11 53 -8 19 3 51 8 70 11 l35 5 -40 -14 c-22 -8 -57 -15 -78 -15 -23
-1 -36 -5 -32 -11 3 -5 1 -10 -5 -10 -7 0 -10 6 -8 12 3 7 -6 21 -19 31 -30
24 -32 53 -2 36 11 -6 51 -10 87 -9z m922 -11 c0 -36 -37 -113 -85 -178 -36
-49 -115 -130 -115 -118 0 4 26 51 59 105 32 53 72 125 90 160 34 68 51 78 51
31z m-1667 -75 c27 -49 68 -118 92 -154 24 -36 41 -67 38 -70 -9 -9 -127 124
-160 181 -36 61 -56 145 -32 137 8 -2 36 -45 62 -94z m-283 61 c-7 -8 -22 -15
-34 -15 -21 1 -21 1 -2 15 27 21 53 20 36 0z m1200 -2 c0 -17 -19 -37 -27 -29
-4 5 -2 11 5 13 6 3 10 9 6 14 -3 5 0 9 5 9 6 0 11 -3 11 -7z m830 -59 c0 -10
-30 -43 -30 -33 0 2 -7 26 -15 53 l-15 50 30 -29 c16 -16 30 -34 30 -41z
m-910 31 c-7 -9 -15 -13 -17 -11 -7 7 7 26 19 26 6 0 6 -6 -2 -15z m-40 -10
c-7 -9 -15 -13 -17 -11 -7 7 7 26 19 26 6 0 6 -6 -2 -15z m80 5 c0 -5 -4 -10
-10 -10 -5 0 -10 5 -10 10 0 6 5 10 10 10 6 0 10 -4 10 -10z m71 -6 c12 -14
11 -16 -5 -13 -11 2 -21 10 -24 17 -5 17 13 15 29 -4z m-221 -4 c0 -5 -4 -10
-10 -10 -5 0 -10 5 -10 10 0 6 5 10 10 10 6 0 10 -4 10 -10z m30 0 c0 -5 -5
-10 -11 -10 -5 0 -7 5 -4 10 3 6 8 10 11 10 2 0 4 -4 4 -10z m140 -10 c0 -6
-20 -19 -45 -30 -40 -17 -45 -23 -45 -51 0 -24 -4 -30 -16 -25 -8 3 -12 2 -9
-4 3 -6 13 -10 21 -10 9 0 14 -11 14 -36 0 -19 -4 -33 -9 -29 -5 3 -12 1 -15
-4 -7 -10 -25 -9 -43 2 -7 5 -13 4 -13 0 0 -5 -9 -9 -20 -9 -18 0 -20 6 -18
36 3 31 6 35 36 38 17 2 32 8 32 14 0 5 -7 8 -15 4 -8 -3 -15 -1 -15 4 0 5 -7
7 -15 4 -18 -7 -20 15 -3 50 13 30 27 36 102 40 31 1 59 6 63 9 9 10 13 9 13
-3z m1236 -15 c23 -59 -34 -92 -301 -175 -55 -17 -106 -34 -113 -37 -10 -4
-13 4 -10 28 4 41 11 45 201 110 76 26 152 57 170 68 38 25 46 26 53 6z
m-2611 -15 c18 -11 99 -43 181 -71 179 -60 194 -69 194 -110 0 -26 -3 -30 -17
-24 -10 4 -90 31 -178 60 -192 63 -235 86 -235 124 0 46 9 49 55 21z m692 -77
c29 -63 88 -142 177 -237 36 -39 69 -86 77 -108 19 -58 51 -88 94 -88 19 0 35
-1 35 -2 -1 -2 -9 -26 -19 -55 l-18 -52 -36 37 c-23 24 -47 67 -69 122 -27 71
-42 95 -93 145 -116 113 -179 213 -190 297 -5 38 -4 40 6 18 7 -14 23 -49 36
-77z m1197 8 c-24 -65 -74 -138 -160 -232 -45 -51 -80 -100 -90 -128 -30 -84
-56 -131 -87 -162 l-30 -30 -16 48 -16 48 39 12 c53 17 62 27 86 91 14 38 39
76 74 112 29 30 69 76 90 102 40 50 115 189 117 216 1 9 4 6 6 -7 3 -13 -3
-44 -13 -70z m276 48 c-5 -17 -16 -42 -24 -54 -15 -23 -160 -157 -177 -163
-17 -7 -9 25 12 44 12 10 51 57 87 104 71 92 91 112 103 105 4 -3 4 -19 -1
-36z m-1712 -29 c24 -30 65 -80 91 -110 46 -54 68 -90 53 -90 -11 0 -159 138
-182 171 -12 16 -25 43 -30 60 -14 47 16 34 68 -31z m659 -2 c27 -10 33 -17
29 -33 -3 -11 -6 -28 -6 -39 0 -16 -5 -17 -37 -12 -65 12 -71 15 -66 36 6 24
-9 26 -27 5 -7 -8 -19 -15 -28 -15 -12 0 -10 6 8 25 19 21 50 36 89 44 3 1 20
-4 38 -11z m363 -29 c-6 -10 -7 -24 -4 -32 4 -11 -10 -17 -56 -26 -34 -7 -63
-11 -64 -9 -5 6 -26 71 -24 72 63 30 74 32 114 23 37 -9 42 -13 34 -28z m-807
-34 c10 -24 34 -65 53 -90 35 -45 34 -63 -1 -25 -14 16 -20 17 -26 8 -12 -19
-82 53 -73 75 9 25 18 21 47 -20 34 -47 35 -36 3 15 -27 42 -41 82 -29 82 4 0
16 -20 26 -45z m899 24 c32 -10 38 -14 21 -17 -12 -2 -39 6 -60 18 -21 12 -30
19 -21 16 9 -3 36 -11 60 -17z m328 -38 c-11 -23 -25 -41 -30 -41 -5 0 3 24
17 52 15 29 28 47 30 41 2 -6 -5 -30 -17 -52z m710 23 c0 -52 -13 -69 -72 -92
-47 -18 -342 -111 -344 -108 0 0 1 20 4 43 5 48 -4 44 219 118 78 26 150 53
160 61 28 21 33 17 33 -22z m-2445 -53 c55 -17 123 -41 152 -52 49 -20 51 -22
55 -63 l3 -43 -55 14 c-78 20 -258 77 -305 97 -48 21 -55 30 -55 83 l0 42 53
-23 c28 -13 97 -38 152 -55z m1998 30 c-32 -42 -196 -162 -207 -151 -7 7 -1
16 14 27 14 9 50 40 80 68 90 84 124 109 128 95 3 -7 -4 -24 -15 -39z m-1650
-60 c87 -77 109 -101 91 -101 -3 0 -39 23 -80 51 -80 56 -148 124 -139 140 9
13 16 8 128 -90z m997 84 c7 -8 8 -15 2 -15 -5 0 -15 7 -22 15 -7 8 -8 15 -2
15 5 0 15 -7 22 -15z m252 -29 c4 -6 7 -18 7 -26 0 -10 -2 -11 -6 -2 -9 22
-25 13 -21 -12 l5 -25 -86 5 c-47 3 -135 9 -196 12 l-110 7 105 18 c58 9 134
25 170 35 66 19 115 14 132 -12z m-778 -1 c54 -14 109 -25 122 -25 13 0 24 -4
24 -8 0 -5 -48 -12 -107 -16 -60 -4 -127 -11 -150 -15 -50 -10 -55 -7 -43 25
10 26 2 31 -19 12 -11 -11 -12 -9 -2 9 9 19 8 21 -12 17 -16 -3 -14 0 8 10 42
21 66 20 179 -9z m956 -13 c0 -25 -65 -88 -75 -72 -5 8 -14 5 -31 -11 -30 -28
-31 -18 -2 21 13 18 24 26 28 20 4 -6 17 4 31 24 26 39 49 47 49 18z m230 -26
c0 -18 -38 -57 -82 -85 -58 -35 -45 -37 17 -2 62 35 65 36 65 18 0 -19 -37
-51 -95 -80 -57 -30 -56 -33 5 -12 23 8 49 15 56 15 21 0 5 -29 -25 -45 -25
-14 -25 -14 -3 -15 13 0 22 -6 22 -15 0 -8 -10 -17 -22 -19 -117 -26 -117 -26
-54 -20 46 5 57 3 54 -8 -3 -7 -18 -16 -34 -19 l-29 -7 28 -1 c36 -1 34 -15
-3 -31 -19 -8 -62 -11 -120 -8 -72 3 -87 2 -78 -9 8 -10 5 -15 -13 -21 -15 -6
-18 -11 -11 -16 20 -12 3 -26 -31 -26 l-32 1 24 20 c21 17 22 22 10 30 -7 5
-22 9 -31 9 -21 0 -23 11 -7 27 12 12 4 33 -12 33 -6 0 -8 -9 -4 -19 4 -12 0
-23 -9 -28 -8 -4 -14 -12 -13 -18 1 -5 -9 -12 -22 -13 -16 -3 -22 0 -18 10 2
7 10 12 16 10 6 -1 11 2 11 8 0 5 -4 10 -9 10 -5 0 -1 17 9 37 10 20 16 43 13
49 -6 16 42 48 57 39 14 -9 -6 -35 -26 -35 -8 0 -14 -4 -14 -10 0 -5 7 -10 15
-10 8 0 15 -8 15 -17 0 -15 1 -15 14 2 8 11 19 16 30 12 23 -9 20 -26 -6 -36
-14 -5 -18 -10 -10 -15 7 -4 10 -12 7 -17 -4 -5 -1 -9 4 -9 6 0 11 9 11 20 0
11 7 20 15 20 11 0 14 7 9 25 -5 22 -3 25 20 25 30 0 34 -14 9 -30 -12 -8 -14
-13 -6 -16 7 -3 10 -11 7 -17 -6 -15 76 -10 91 5 7 7 -4 9 -32 5 -45 -5 -57 8
-30 35 8 7 12 19 10 25 -3 7 13 21 34 32 30 17 32 20 12 15 -39 -8 -45 12 -9
31 16 8 30 18 30 21 0 2 -9 0 -20 -6 -16 -8 -20 -8 -20 3 0 8 24 30 53 49 28
19 72 52 95 72 47 38 62 44 62 22z m-1672 -58 c85 -60 112 -84 112 -99 0 -4
-20 4 -46 18 -25 14 -47 23 -50 21 -2 -3 20 -18 51 -34 73 -38 74 -59 2 -35
-75 26 -128 55 -156 85 -36 38 -16 45 40 13 59 -33 64 -27 8 10 -40 27 -80 83
-58 83 6 0 50 -28 97 -62z m827 30 c8 -35 -10 -62 -25 -38 -8 13 -10 12 -10
-2 0 -20 -20 -25 -20 -5 0 8 -3 8 -8 1 -9 -14 -42 -26 -42 -15 0 4 -12 6 -26
3 -24 -4 -25 -3 -22 34 l3 39 55 5 c30 3 63 6 72 7 11 1 19 -8 23 -29z m-200
-15 c-11 -7 -26 -13 -35 -13 -17 0 -40 -19 -40 -33 0 -5 9 -7 21 -4 12 3 18 3
15 0 -3 -4 -1 -12 5 -19 19 -23 1 -57 -52 -98 -27 -21 -51 -37 -53 -35 -2 2
-13 25 -24 51 l-20 47 34 11 c39 13 42 20 14 45 -35 32 -25 40 75 60 66 13 88
9 60 -12z m416 -3 c35 -18 35 -18 8 -46 -27 -29 -20 -38 42 -48 22 -3 39 -9
39 -12 0 -2 -9 -22 -20 -44 l-20 -38 -53 28 c-29 16 -64 41 -77 55 l-25 27 28
22 c15 12 27 25 27 28 0 7 -42 21 -92 32 -16 4 -28 10 -28 14 0 12 144 -4 171
-18z m-857 -54 l7 -29 -33 21 c-34 22 -44 42 -33 69 5 14 9 13 29 -8 13 -13
27 -37 30 -53z m1264 46 c2 -14 -8 -28 -34 -46 -21 -14 -39 -24 -41 -22 -2 2
2 16 9 32 26 62 60 80 66 36z m641 6 c-19 -37 -41 -58 -61 -58 -15 0 -19 6
-16 27 2 20 12 29 38 39 49 18 52 17 39 -8z m-2530 -33 c19 6 61 -27 61 -48 0
-4 8 -6 19 -2 22 7 44 -17 38 -42 -4 -14 -5 -13 -6 5 -1 23 -21 32 -21 9 0 -8
-7 -14 -15 -14 -8 0 -15 4 -15 9 0 4 -5 8 -10 8 -6 0 -8 -11 -4 -25 9 -38 -10
-30 -55 23 -46 53 -52 47 -16 -15 l24 -43 -27 0 c-37 0 -72 11 -72 21 0 5 9 9
21 9 16 0 19 4 14 18 -16 38 -26 84 -21 95 2 7 5 1 5 -12 1 -20 3 -22 16 -11
14 11 14 15 -2 33 -16 19 -15 19 14 -2 20 -14 40 -20 52 -16z m701 -45 c0 -17
-25 -11 -48 10 -22 21 -28 41 -15 54 8 8 63 -48 63 -64z m1110 46 c0 -26 -46
-64 -61 -49 -9 9 36 73 52 73 5 0 9 -11 9 -24z m620 -31 c0 -62 -48 -78 -75
-25 -21 41 -19 48 18 58 38 11 57 -1 57 -33z m103 -55 c-16 -57 -23 -67 -58
-87 -51 -29 -55 -29 -55 5 0 29 14 52 85 136 48 57 54 44 28 -54z m-1237 55
c4 -14 3 -29 0 -33 -9 -8 -26 18 -26 41 0 26 19 20 26 -8z m424 -17 c-32 -26
-38 -13 -9 18 15 16 25 21 28 13 2 -7 -6 -21 -19 -31z m-972 -16 c0 -10 3 -25
7 -34 9 -22 -13 -24 -40 -4 -23 17 -14 49 12 39 17 -6 17 -5 1 14 -24 27 -23
40 1 19 11 -10 19 -25 19 -34z m391 21 c1 9 6 17 11 17 6 0 11 -8 11 -17 1
-16 2 -16 6 0 3 11 11 16 19 13 8 -3 14 -1 14 4 0 5 12 8 27 7 20 -2 29 -9 34
-30 7 -27 -7 -51 -15 -25 -12 39 -14 41 -15 16 -1 -30 -10 -35 -29 -16 -9 9
-12 8 -12 -6 0 -15 -3 -16 -14 -7 -11 9 -15 9 -20 -1 -5 -10 -7 -10 -12 -1 -3
7 -12 9 -20 6 -10 -4 -14 3 -14 24 0 38 13 51 21 21 5 -16 7 -18 8 -5z m1152
-16 c-14 -42 -45 -72 -66 -64 -16 7 -20 44 -7 64 8 13 74 44 80 38 2 -2 -1
-19 -7 -38z m-407 24 c10 -16 -5 -41 -33 -56 -25 -14 -25 -14 -3 -15 27 0 29
-25 3 -40 -27 -14 -31 -13 -31 7 0 14 -3 13 -20 -5 -12 -12 -30 -22 -41 -22
-18 0 -19 1 -3 25 10 15 26 25 41 25 13 0 22 4 18 10 -10 16 34 79 57 80 4 0
9 -4 12 -9z m-1734 -22 c0 -11 -4 -17 -10 -14 -5 3 -10 13 -10 21 0 8 5 14 10
14 6 0 10 -9 10 -21z m448 12 c17 -10 44 -61 33 -61 -5 0 -6 -11 -3 -25 5 -31
-17 -34 -43 -5 -16 17 -16 20 -2 26 13 5 13 8 -4 25 -33 33 -19 64 19 40z m57
-7 c8 -4 23 -20 31 -36 15 -29 15 -30 -8 -23 -26 8 -48 32 -48 52 0 15 2 15
25 7z m1155 -13 c0 -20 -14 -34 -43 -44 -15 -6 -17 -3 -11 16 7 21 31 46 47
47 4 0 7 -8 7 -19z m-1628 -13 c-7 -7 -12 -8 -12 -2 0 14 12 26 19 19 2 -3 -1
-11 -7 -17z m1562 13 c11 -17 -5 -39 -30 -44 -28 -5 -30 0 -8 31 16 23 29 28
38 13z m-79 -38 c-26 -18 -32 -7 -9 18 12 14 20 17 23 8 2 -7 -4 -18 -14 -26z
m515 -18 c3 -46 1 -55 -14 -55 -16 0 -31 17 -40 47 -5 16 -1 28 15 44 25 25
36 15 39 -36z m191 -8 c25 -48 27 -93 5 -115 -16 -16 -18 -16 -37 7 -20 24
-24 66 -12 134 6 42 9 40 44 -26z m-2102 37 c2 -2 1 -11 -3 -20 -6 -14 -9 -15
-28 -2 -34 23 -35 40 -1 32 15 -4 30 -8 32 -10z m217 -18 c85 -33 116 -55 77
-57 -16 0 -16 -1 2 -8 11 -5 27 -4 36 2 21 13 49 2 49 -18 0 -15 -31 -21 -43
-9 -4 4 -28 8 -54 9 l-48 3 48 -11 c58 -13 61 -27 5 -28 l-43 -2 40 -6 c68
-11 77 -25 20 -32 l-50 -6 48 -1 c49 -2 64 -17 25 -25 -17 -3 -14 -5 10 -6 37
-1 43 -18 10 -24 -15 -3 -13 -4 5 -2 15 1 30 -2 33 -6 6 -10 -54 -28 -121 -36
-45 -6 -49 -5 -37 10 12 13 10 16 -15 19 l-28 3 30 17 30 17 -32 1 c-60 0 -46
29 15 31 24 0 25 1 7 9 -11 5 -37 11 -57 15 -44 7 -51 25 -10 26 27 1 27 1 -5
10 -49 14 -50 29 -1 30 l43 1 -35 7 c-62 12 -85 41 -32 41 27 0 27 0 -7 18
-40 20 -52 42 -23 42 11 0 60 -15 108 -34z m309 14 c21 -23 4 -27 -19 -4 -18
17 -20 24 -8 24 5 0 17 -9 27 -20z m280 -20 c-4 -17 -9 -30 -11 -27 -2 2 -1
18 2 36 4 17 9 30 11 27 3 -2 2 -19 -2 -36z m-755 -1 c0 -38 -24 -35 -28 4 -2
19 1 27 12 27 11 0 16 -10 16 -31z m971 9 l10 -23 -5 23 c-6 32 16 23 28 -11
6 -15 6 -30 1 -34 -4 -5 -10 -2 -12 5 -4 10 -8 8 -18 -5 -13 -17 -14 -16 -25
11 -17 47 1 77 21 34z m-140 -9 c6 -10 9 -10 9 -1 0 6 5 12 10 12 6 0 10 -9
10 -20 0 -11 5 -20 10 -20 6 0 10 9 10 20 0 11 5 20 10 20 6 0 10 -15 10 -33
0 -31 -3 -34 -30 -34 -24 0 -30 5 -31 21 0 21 -1 21 -9 1 -4 -11 -4 -24 1 -29
12 -13 11 -73 -1 -81 -6 -3 -14 4 -19 17 -6 13 -10 17 -10 11 -1 -15 -31 -18
-31 -4 0 5 5 22 11 38 l12 28 7 -25 c6 -22 8 -23 15 -7 8 20 -10 47 -32 47
-10 0 -13 6 -9 16 3 9 6 21 6 28 0 17 39 13 51 -5z m103 -10 c6 -34 0 -53 -15
-44 -11 8 -12 75 0 75 5 0 11 -14 15 -31z m-1041 1 c14 -11 34 -20 46 -20 11
0 25 -6 31 -12 24 -29 70 -91 70 -95 0 -18 -32 -74 -48 -82 -30 -16 -32 -14
-16 17 19 38 18 42 -15 42 -20 0 -36 9 -50 27 -24 30 -30 28 -33 -10 -2 -22
-7 -27 -30 -27 -35 0 -44 -16 -22 -41 16 -18 16 -19 -3 -19 -30 0 -70 36 -76
67 -3 16 -8 38 -12 51 -6 19 -2 24 24 33 23 8 31 17 31 34 0 52 57 71 103 35z
m2067 -36 c-26 -61 -57 -94 -86 -94 -55 0 -34 47 49 108 28 22 53 39 55 37 1
-1 -7 -24 -18 -51z m-1590 24 l21 -23 -21 -3 c-24 -4 -50 14 -50 34 0 21 27
17 50 -8z m141 -4 c7 -8 10 -17 7 -19 -9 -9 -68 17 -68 30 0 16 45 8 61 -11z
m182 11 c-3 -9 -8 -14 -10 -11 -3 3 -2 9 2 15 9 16 15 13 8 -4z m667 2 c0 -8
-16 -18 -35 -24 -28 -9 -35 -8 -35 2 0 7 12 18 28 23 37 14 42 14 42 -1z
m-920 -12 c7 -9 10 -18 7 -21 -9 -9 -60 10 -65 24 -6 18 43 15 58 -3z m750
-57 c0 -4 -5 -10 -12 -14 -7 -5 -8 -3 -4 5 5 7 1 20 -6 29 -8 9 -18 24 -23 32
-4 8 4 2 19 -15 14 -16 25 -33 26 -37z m610 -9 c14 -80 3 -123 -27 -117 -32 6
-38 50 -17 122 10 36 22 66 25 66 4 0 13 -32 19 -71z m-1126 27 c-3 -9 -10
-16 -15 -16 -5 0 -4 9 3 20 14 22 21 20 12 -4z m434 -7 c-3 -8 -7 -3 -11 10
-4 17 -3 21 5 13 5 -5 8 -16 6 -23z m-1451 14 c-10 -9 31 -35 44 -28 6 4 8 14
4 24 -4 10 -3 13 4 6 5 -6 7 -25 3 -43 l-7 -33 -40 41 c-31 32 -35 40 -20 40
10 0 15 -3 12 -7z m393 -47 c0 -6 -7 -1 -15 10 -8 10 -14 26 -14 34 0 16 28
-28 29 -44z m461 43 c11 -5 17 -14 14 -19 -3 -5 -1 -11 4 -14 5 -4 8 -17 6
-31 -1 -14 1 -25 4 -25 4 0 12 -14 19 -32 10 -26 9 -35 -3 -48 -8 -9 -15 -22
-15 -28 0 -7 -7 -12 -15 -12 -8 0 -15 5 -15 10 0 6 7 13 15 16 17 7 20 34 4
34 -6 0 -9 6 -6 14 3 8 -1 17 -9 20 -9 3 -13 10 -9 15 3 5 1 12 -4 16 -6 3 -8
12 -5 19 3 8 -2 16 -13 19 -15 4 -14 6 7 13 l25 8 -24 6 c-28 6 -41 30 -16 30
9 0 25 -5 36 -11z m502 -23 c10 -29 3 -46 -12 -30 -5 5 -13 22 -17 38 -9 38
16 31 29 -8z m28 7 c8 -15 24 -37 37 -49 12 -13 22 -28 22 -34 0 -22 -18 -8
-47 38 -43 68 -45 72 -35 72 5 0 15 -12 23 -27z m309 19 c0 -5 -10 -14 -22
-20 -18 -8 -19 -11 -5 -11 21 -1 23 -21 2 -21 -9 0 -12 -6 -9 -15 4 -10 0 -15
-11 -15 -14 0 -15 -3 -5 -15 12 -14 7 -20 -14 -16 -5 1 -6 -5 -2 -14 7 -20
-21 -52 -34 -39 -6 6 -2 29 9 59 10 28 16 56 14 63 -3 6 0 12 7 12 6 0 8 5 4
11 -3 6 0 15 7 20 18 11 59 12 59 1z m848 -29 c-18 -65 -46 -109 -79 -126 -54
-26 -81 1 -54 53 13 25 115 106 137 109 3 1 2 -16 -4 -36z m-2507 -70 c33 -47
35 -53 15 -53 -20 0 -97 83 -91 98 3 7 0 23 -6 35 -18 34 46 -28 82 -80z m698
80 c10 -17 10 -17 11 0 0 29 41 17 60 -18 10 -16 15 -36 12 -42 -2 -7 1 -13 8
-13 7 0 10 -6 7 -14 -3 -8 1 -17 9 -20 20 -8 8 -26 -18 -26 -14 0 -18 5 -14
15 3 9 -1 18 -10 22 -8 3 -13 12 -10 19 3 8 -1 14 -10 14 -11 0 -15 6 -11 20
3 11 1 22 -3 25 -15 9 -21 -14 -10 -35 9 -16 8 -20 -5 -20 -9 0 -22 -6 -30
-13 -11 -11 -9 -16 8 -27 l21 -13 -23 -8 c-29 -11 -44 -2 -38 22 3 11 2 17 -3
14 -4 -3 -13 2 -20 10 -9 10 -9 15 -1 15 19 0 12 17 -10 23 -25 7 -16 27 13
27 11 0 22 -8 25 -20 4 -16 7 -17 19 -5 18 17 18 25 0 25 -18 0 -29 16 -21 30
10 16 33 12 44 -7z m375 -17 c-3 -14 -10 -23 -15 -21 -4 3 -3 17 3 30 14 31
21 26 12 -9z m210 2 c7 -36 -9 -62 -24 -38 -5 8 -10 27 -10 43 0 38 26 35 34
-5z m-86 -22 c3 -32 1 -37 -15 -34 -10 2 -18 9 -17 16 1 6 2 24 3 38 2 39 26
23 29 -20z m40 1 c2 -20 -1 -37 -6 -37 -13 0 -22 25 -22 57 0 39 25 22 28 -20z
m197 13 c3 -5 1 -10 -4 -10 -6 0 -11 5 -11 10 0 6 2 10 4 10 3 0 8 -4 11 -10z
m895 -123 c0 -15 -7 -18 -37 -15 -36 3 -38 5 -35 33 2 17 8 46 14 65 l11 35
24 -50 c12 -27 23 -58 23 -68z m-950 47 c0 -23 -15 -24 -32 -2 l-19 23 7 -26
c3 -16 1 -30 -6 -34 -17 -11 -29 6 -32 45 -2 27 1 35 14 35 9 0 20 4 24 8 9 8
43 -31 44 -49z m-339 3 c-11 -28 -31 -37 -31 -14 0 18 33 63 37 50 2 -5 -1
-22 -6 -36z m1187 -9 c-22 -41 -26 -43 -73 -46 l-49 -3 19 22 c21 23 117 81
123 74 2 -2 -7 -23 -20 -47z m-1969 -8 c22 0 6 -24 -22 -34 -31 -11 -78 1 -85
23 -3 10 3 11 28 6 32 -7 32 -7 26 26 l-7 34 23 -27 c13 -16 30 -28 37 -28z
m119 20 c-10 -15 -9 -23 6 -39 19 -21 19 -21 -22 -21 l-41 0 24 36 c14 20 25
41 25 46 0 5 4 6 10 3 6 -4 5 -13 -2 -25z m712 21 c0 -18 -22 -71 -30 -71 -17
0 -19 17 -7 49 10 28 37 44 37 22z m40 -26 c0 -34 -10 -55 -26 -55 -16 0 -18
28 -4 65 12 30 30 25 30 -10z m45 -26 c0 -32 -4 -44 -15 -44 -17 0 -25 35 -15
72 10 40 30 21 30 -28z m58 7 c10 -41 -1 -63 -27 -53 -26 10 -18 103 8 94 6
-2 15 -20 19 -41z m52 8 c4 -22 2 -41 -4 -47 -15 -15 -29 2 -31 38 -3 42 -2
45 14 45 8 0 17 -15 21 -36z m693 30 c45 -13 20 -24 -52 -24 -88 0 -128 11
-81 21 40 9 105 10 133 3z m-1233 -19 c0 -5 -10 -11 -22 -13 -16 -2 -23 2 -23
13 0 11 7 15 23 13 12 -2 22 -7 22 -13z m985 6 c0 -6 -4 -12 -9 -15 -13 -8
-42 4 -35 15 7 12 44 12 44 0z m-300 -55 c5 -24 4 -41 -5 -52 -14 -20 -24 -9
-35 42 -6 27 -4 36 8 43 21 12 22 11 32 -33z m225 33 c10 -15 -1 -22 -24 -14
-12 3 -19 11 -16 16 8 12 32 11 40 -2z m307 -14 c24 -10 11 -28 -15 -21 -15 4
-17 2 -8 -7 22 -22 11 -29 -36 -23 -46 5 -46 3 6 -16 15 -5 21 -12 15 -18 -9
-9 -148 21 -161 34 -3 3 5 10 18 15 13 5 18 10 10 10 -8 1 -11 4 -7 8 4 4 26
6 49 6 l42 -2 -37 11 c-21 5 -38 13 -38 17 0 8 138 -3 162 -14z m88 -15 c0
-12 -40 -44 -46 -37 -3 3 0 22 6 43 12 35 14 36 26 19 8 -10 14 -22 14 -25z
m-340 9 c0 -5 -9 -9 -20 -9 -19 0 -26 11 -14 23 8 8 34 -3 34 -14z m-950 1 c0
-5 -9 -10 -20 -10 -11 0 -20 5 -20 10 0 6 9 10 20 10 11 0 20 -4 20 -10z m70
-14 c0 -15 -24 -28 -34 -19 -7 7 13 33 25 33 5 0 9 -6 9 -14z m543 -3 c15 -53
16 -72 6 -79 -15 -9 -37 16 -40 46 -5 42 24 70 34 33z m251 11 c23 -9 20 -24
-4 -24 -11 0 -20 7 -20 15 0 17 2 18 24 9z m-1351 -33 l139 -1 29 -32 c17 -17
35 -40 41 -51 10 -19 7 -19 -148 -15 -100 3 -186 12 -232 22 -68 17 -74 20
-92 56 -11 22 -20 41 -20 43 0 2 33 -2 73 -9 39 -7 134 -13 210 -13z m452 20
c3 -6 -3 -15 -14 -20 -14 -8 -22 -7 -30 3 -9 11 -9 15 1 19 21 9 36 8 43 -2z
m53 -7 c-4 -24 -53 -58 -69 -49 -17 11 17 36 39 28 10 -4 13 -2 8 5 -8 14 0
32 15 32 6 0 9 -7 7 -16z m122 7 c0 -12 -20 -25 -27 -18 -7 7 6 27 18 27 5 0
9 -4 9 -9z m144 -22 c9 -47 7 -59 -8 -59 -13 0 -36 48 -36 76 0 8 8 14 19 14
13 0 20 -10 25 -31z m636 16 c10 -13 9 -15 -9 -15 -12 0 -21 6 -21 15 0 8 4
15 9 15 5 0 14 -7 21 -15z m75 6 c3 -5 1 -12 -5 -16 -14 -9 -52 4 -45 16 8 12
42 12 50 0z m-665 -20 c5 -11 10 -34 10 -51 0 -25 -4 -31 -17 -28 -14 2 -19
15 -21 51 -3 49 9 62 28 28z m244 -36 c8 -40 -6 -64 -28 -46 -16 14 -22 81 -9
95 11 10 30 -16 37 -49z m226 45 c0 -5 -5 -10 -11 -10 -5 0 -7 -5 -3 -12 5 -8
0 -9 -15 -5 -19 5 -20 3 -9 -11 11 -13 10 -15 -9 -10 -16 4 -20 2 -16 -10 4
-10 2 -13 -5 -8 -8 4 -12 0 -12 -10 0 -14 -3 -15 -12 -6 -9 9 -3 21 27 52 38
38 65 51 65 30z m908 3 c-40 -82 -39 -81 -107 -92 -134 -21 -176 -23 -288 -16
l-115 7 43 45 44 45 130 -5 c103 -3 251 8 293 22 2 1 2 -2 0 -6z m-1798 -22
c0 -10 -158 -46 -167 -38 -11 12 4 19 79 37 72 16 88 17 88 1z m490 -52 c0
-39 -15 -58 -31 -42 -13 13 -23 78 -15 99 6 15 8 15 26 -1 13 -12 20 -31 20
-56z m445 61 c10 -16 -24 -45 -37 -32 -7 7 -6 15 3 26 16 18 26 20 34 6z
m-795 -21 c0 -5 -7 -9 -15 -9 -8 0 -15 -6 -15 -14 0 -15 -37 -32 -48 -22 -3 4
10 19 29 35 32 28 49 31 49 10z m119 8 c11 -14 5 -27 -12 -27 -5 0 -7 6 -4 14
4 10 0 12 -14 9 -20 -6 -20 -6 1 -28 15 -16 18 -25 10 -30 -7 -4 -16 -1 -21 6
-7 11 -12 12 -29 1 -16 -10 -24 -10 -40 0 -23 15 -25 24 -8 34 6 4 14 2 16 -5
3 -8 9 -5 19 8 8 12 18 19 22 17 4 -3 13 -1 21 5 20 12 26 11 39 -4z m279 1
c7 -7 12 -23 12 -36 0 -13 4 -21 9 -18 4 3 6 17 4 31 -4 17 0 27 12 31 22 9
35 -12 35 -58 0 -40 -9 -51 -30 -38 -9 5 -19 5 -27 -2 -22 -18 -40 -2 -47 42
-9 56 4 76 32 48z m447 3 c7 -12 -12 -24 -25 -16 -11 7 -4 25 10 25 5 0 11 -4
15 -9z m65 -1 c26 -16 -3 -35 -30 -20 -18 10 -20 14 -9 21 18 11 21 11 39 -1z
m-1033 -24 c-3 -7 0 -13 6 -12 7 0 13 -3 14 -8 1 -5 7 -13 15 -17 10 -7 6 -15
-17 -34 -27 -23 -27 -25 -5 -14 14 6 40 23 59 37 33 25 34 25 48 6 8 -10 17
-18 21 -16 14 7 12 -16 -3 -28 -8 -7 -15 -18 -15 -26 0 -15 -81 -84 -99 -84
-17 0 13 41 53 70 34 25 45 68 17 66 -16 -1 -62 -39 -55 -45 2 -2 12 4 23 13
14 13 21 14 26 6 7 -12 -19 -39 -73 -77 -29 -20 -41 -9 -17 17 20 23 14 26
-15 8 -27 -17 -37 -2 -14 23 19 22 19 22 -3 10 -12 -6 -29 -11 -39 -11 -16 0
-16 1 1 20 18 20 18 20 -13 14 -51 -10 -39 14 21 41 60 27 59 32 -3 10 -23 -8
-54 -15 -68 -15 -42 0 -12 20 60 40 78 23 81 23 75 6z m1113 4 c59 -14 100
-30 100 -41 0 -5 -7 -9 -16 -9 -23 0 -144 44 -144 52 0 10 5 10 60 -2z m-836
-17 c4 -9 2 -21 -4 -27 -7 -7 -10 -5 -10 8 0 9 -4 14 -10 11 -11 -7 -14 8 -3
18 11 11 21 8 27 -10z m600 1 c5 -13 2 -15 -14 -11 -17 4 -19 3 -9 -9 9 -11 8
-14 -3 -14 -24 0 -29 12 -11 32 20 22 29 23 37 2z m71 6 c3 -6 -1 -13 -9 -16
-9 -3 -16 -13 -16 -22 0 -14 2 -13 13 2 8 11 19 15 30 10 21 -8 17 -30 -6 -28
-9 1 -13 -4 -10 -12 3 -8 0 -14 -6 -14 -6 0 -20 -9 -32 -21 l-21 -21 23 -22
23 -21 -18 23 c-15 17 -16 22 -5 22 17 0 89 -65 89 -79 0 -15 -13 -14 -28 1
-9 9 -12 9 -12 1 0 -7 5 -15 10 -18 16 -10 12 -25 -5 -19 -40 16 -149 184
-119 184 5 0 23 13 39 29 32 31 50 38 60 21z m55 0 c12 -7 12 -12 3 -21 -9 -9
-16 -9 -27 1 -26 21 -5 39 24 20z m123 -32 c57 -24 62 -43 10 -35 -35 6 -36 6
-15 -9 31 -22 28 -38 -5 -29 -23 5 -26 4 -15 -6 16 -17 15 -29 -2 -29 -20 0
-123 83 -109 87 7 3 23 -3 38 -13 14 -9 28 -15 30 -12 3 3 -6 11 -20 18 -43
23 -27 41 18 20 22 -10 22 -10 0 6 -13 9 -23 21 -23 26 0 11 25 4 93 -24z
m-397 -10 c-4 -18 -13 -39 -21 -48 -13 -13 -15 -12 -15 7 0 31 18 73 31 73 8
0 9 -11 5 -32z m-525 -7 c16 -14 17 -21 8 -27 -7 -4 -14 -3 -17 4 -2 7 -10 12
-18 12 -15 0 -19 12 -7 23 9 10 12 9 34 -12z m62 -1 c8 -11 17 -17 20 -13 4 3
7 -1 7 -10 0 -15 -3 -15 -32 1 -18 9 -35 18 -37 19 -6 3 10 23 19 23 5 0 15
-9 23 -20z m44 0 c1 -16 -1 -17 -12 -7 -7 6 -11 15 -8 20 8 13 19 7 20 -13z
m373 -19 c0 -36 -22 -72 -37 -58 -3 4 -12 -1 -18 -10 -11 -15 -15 -15 -29 -4
-13 11 -16 11 -16 -2 0 -21 -26 -29 -40 -12 -14 17 -9 77 8 83 6 2 16 -7 21
-20 l9 -23 11 28 c10 27 36 33 36 10 0 -6 3 -15 8 -19 4 -4 7 0 7 10 0 23 18
56 30 56 6 0 10 -17 10 -39z m90 29 c0 -5 -5 -10 -12 -10 -9 0 -9 -3 0 -12 9
-9 16 -6 31 11 11 13 25 20 30 16 18 -10 13 -23 -11 -31 -13 -4 -26 -11 -30
-17 -10 -15 -39 19 -32 37 7 18 24 22 24 6z m-1335 -20 c28 -6 129 -13 225
-16 165 -6 177 -8 208 -31 38 -28 44 -59 10 -49 -21 5 -139 15 -406 32 -83 5
-94 8 -112 31 -27 35 -26 55 3 48 12 -3 45 -10 72 -15z m925 -28 c0 -28 -3
-33 -10 -22 -13 20 -13 73 0 65 6 -3 10 -23 10 -43z m34 22 c3 -9 6 -28 6 -42
-1 -26 -1 -26 -15 -8 -16 22 -20 66 -6 66 5 0 12 -7 15 -16z m1336 2 c0 -8 -9
-24 -19 -37 -19 -23 -23 -24 -258 -31 -131 -4 -248 -10 -261 -13 -33 -8 -26
21 11 49 26 20 42 21 225 23 108 1 215 6 237 11 58 14 65 14 65 -2z m-1292 -8
c5 -7 12 -26 14 -43 2 -24 -1 -30 -17 -30 -16 0 -21 8 -23 43 -3 42 6 53 26
30z m-252 -12 c31 -32 7 -55 -31 -30 -20 13 -23 19 -14 30 15 18 27 18 45 0z
m54 5 c0 -12 -20 -25 -27 -18 -7 7 6 27 18 27 5 0 9 -4 9 -9z m270 -10 c13
-26 13 -68 -1 -77 -25 -15 -54 54 -36 84 12 17 25 15 37 -7z m328 0 c3 -8 -1
-12 -9 -9 -7 2 -15 10 -17 17 -3 8 1 12 9 9 7 -2 15 -10 17 -17z m227 -59 c3
-8 4 -17 2 -19 -8 -8 -107 78 -102 88 7 11 91 -47 100 -69z m-745 50 c0 -22
-57 -89 -67 -79 -3 4 5 20 19 35 14 15 28 35 31 45 8 22 17 22 17 -1z m430 8
c0 -5 -4 -10 -10 -10 -5 0 -10 5 -10 10 0 6 5 10 10 10 6 0 10 -4 10 -10z
m-471 -9 c11 -7 6 -17 -25 -48 -21 -21 -52 -61 -68 -88 -16 -28 -31 -44 -33
-37 -6 17 77 142 94 142 7 0 13 5 13 10 0 6 -4 10 -10 10 -5 0 -10 5 -10 10 0
12 20 13 39 1z m554 -7 c9 -4 17 -10 17 -15 0 -5 15 -26 34 -46 34 -39 60 -82
54 -88 -8 -8 -27 13 -61 65 -43 68 -64 87 -79 72 -6 -6 -17 -8 -24 -5 -8 3
-14 0 -14 -7 0 -6 -4 -8 -10 -5 -5 3 -10 10 -10 15 0 10 51 30 65 24 6 -2 18
-7 28 -10z m180 -43 c28 -26 34 -41 17 -41 -17 0 -100 82 -94 92 6 9 20 0 77
-51z m-783 30 c0 -13 -26 -32 -33 -24 -8 7 11 33 24 33 5 0 9 -4 9 -9z m465
-23 c-4 -18 -13 -40 -21 -48 -12 -12 -14 -10 -14 15 0 24 23 65 37 65 3 0 2
-15 -2 -32z m-536 13 c12 -8 12 -13 -1 -33 -20 -31 -70 -79 -75 -74 -3 2 1 14
7 26 11 21 11 21 -14 5 -45 -30 -32 8 17 49 47 40 46 39 66 27z m181 0 c0 -6
-4 -13 -10 -16 -5 -3 -10 1 -10 9 0 9 5 16 10 16 6 0 10 -4 10 -9z m390 -7 c0
-8 -5 -12 -10 -9 -6 4 -8 11 -5 16 9 14 15 11 15 -7z m-342 -27 c4 -29 -12
-37 -22 -11 -10 26 -7 46 7 42 6 -3 13 -17 15 -31z m465 -15 c43 -61 60 -92
53 -99 -7 -7 -39 32 -62 77 -11 19 -24 39 -31 43 -7 4 -13 12 -13 17 0 22 20
7 53 -38z m-1053 13 c125 -13 137 -16 157 -40 13 -14 23 -29 23 -33 0 -4 -105
-7 -233 -7 -258 0 -268 2 -319 68 l-27 35 132 -5 c73 -3 193 -11 267 -18z
m850 13 c0 -25 -12 -58 -21 -58 -10 0 -12 53 -2 63 10 11 23 8 23 -5z m179
-49 c23 -34 41 -68 41 -76 0 -26 -27 4 -47 52 -17 42 -48 65 -56 42 -5 -15
-27 1 -27 20 0 9 6 13 15 9 8 -3 15 -1 15 4 0 24 21 5 59 -51z m-661 -7 c-37
-51 -69 -72 -47 -31 23 44 61 89 70 83 6 -3 -5 -26 -23 -52z m145 33 c-3 -8
-12 -15 -19 -15 -12 0 -12 4 -4 20 12 23 32 18 23 -5z m117 10 c10 -12 15 -13
20 -4 12 19 30 0 30 -32 0 -29 -13 -39 -25 -18 -4 6 -13 8 -21 5 -15 -6 -19
-2 -28 37 -7 30 4 36 24 12z m1218 -7 c-43 -65 -109 -77 -319 -61 -59 5 -139
6 -178 3 -39 -3 -71 -3 -71 0 1 3 12 18 25 35 23 27 30 30 112 36 48 3 168 7
267 7 l178 2 -14 -22z m-1298 -2 c0 -16 -18 -31 -27 -22 -8 8 5 36 17 36 5 0
10 -6 10 -14z m251 1 c-1 -4 -1 -16 -1 -28 0 -14 -5 -19 -14 -16 -8 3 -16 0
-19 -6 -3 -7 -20 -13 -38 -12 -30 0 -34 4 -37 28 -3 28 21 39 32 15 5 -10 7
-10 12 0 3 6 12 12 19 12 7 0 16 -6 18 -12 3 -7 6 -2 6 10 1 13 6 22 12 20 6
-2 10 -7 10 -11z m132 -7 c3 -13 0 -20 -9 -20 -8 0 -14 9 -14 20 0 11 4 20 9
20 5 0 11 -9 14 -20z m-483 -5 c0 -13 -40 -83 -54 -94 -23 -19 -20 -6 11 50
22 42 43 63 43 44z m45 -55 c-4 -24 -4 -24 7 3 7 15 16 27 20 27 9 0 1 -44
-13 -72 -12 -22 -11 -28 2 -28 5 0 7 5 4 10 -3 6 -1 10 4 10 6 0 11 -5 11 -12
0 -8 5 -7 15 3 16 16 10 54 -6 43 -5 -3 -9 -1 -9 5 0 15 20 24 21 9 0 -10 2
-10 6 0 2 6 10 12 16 12 8 0 7 -4 -1 -12 -15 -15 -16 -32 -2 -23 6 3 10 4 10
1 0 -2 3 -13 6 -23 5 -15 4 -16 -6 -3 -10 12 -11 11 -7 -8 4 -17 2 -22 -8 -19
-7 3 -18 0 -24 -6 -7 -7 -11 -8 -11 0 0 5 -12 9 -26 7 -21 -2 -25 1 -21 17 7
25 -10 25 -18 -1 -3 -11 -11 -20 -16 -20 -12 0 -4 30 18 73 8 16 12 31 10 33
-3 3 -15 -15 -27 -40 -12 -26 -26 -46 -31 -46 -13 0 -12 5 16 60 23 45 27 49
45 38 13 -9 18 -20 15 -38z m531 -12 c16 -32 21 -49 12 -46 -12 4 -57 82 -58
101 -1 19 22 -8 46 -55z m-116 31 c0 -6 -4 -7 -10 -4 -5 3 -10 11 -10 16 0 6
5 7 10 4 6 -3 10 -11 10 -16z m-295 -10 c11 -35 -11 -44 -23 -10 -9 25 -8 31
3 31 7 0 17 -9 20 -21z m250 -1 c-11 -36 -25 -45 -25 -17 0 27 7 39 22 39 5 0
6 -10 3 -22z m125 -18 c21 -41 28 -82 11 -64 -17 16 -51 104 -41 104 5 0 19
-18 30 -40z m-155 -26 c5 -35 3 -46 -19 -70 l-25 -29 -1 25 c0 28 13 53 26 50
5 -1 10 3 12 9 2 6 -1 11 -7 11 -6 0 -11 14 -11 32 0 43 16 24 25 -28z m125
10 c22 -51 23 -54 12 -54 -11 0 -29 32 -37 68 -10 46 3 39 25 -14z m-302 -2
c2 -18 -1 -32 -6 -32 -12 0 -22 24 -22 52 0 32 25 15 28 -20z m253 19 c7 11 9
11 9 1 0 -7 -7 -15 -15 -18 -11 -4 -12 -11 -5 -24 9 -17 4 -30 -11 -30 -5 0
-6 7 -3 15 5 11 1 14 -12 9 -14 -4 -16 -3 -5 4 7 5 10 15 7 21 -4 6 -3 11 3
11 6 0 8 8 5 18 -5 14 -4 14 6 -2 10 -15 14 -16 21 -5z m-201 -38 c0 -37 -24
-22 -28 17 -3 30 -2 32 12 21 9 -8 16 -25 16 -38z m63 39 c3 10 8 10 17 2 16
-15 9 -49 -10 -49 -8 0 -20 -7 -27 -15 -9 -13 -13 -11 -24 12 -15 33 4 66 26
48 9 -8 14 -7 18 2z m587 2 c0 -3 -5 -14 -10 -25 -14 -25 -60 -26 -60 -1 0 10
3 22 7 25 8 8 63 9 63 1z m137 -8 c-7 -20 -77 -48 -103 -42 l-27 7 24 25 c19
20 31 24 66 22 24 -2 42 -7 40 -12z m265 -16 c-34 -32 -82 -41 -82 -16 0 21
24 31 110 45 3 0 -10 -13 -28 -29z m-2003 -22 c-5 -10 -14 -18 -19 -18 -6 0
-10 -4 -10 -10 0 -5 6 -10 14 -10 7 0 16 -8 20 -17 3 -10 9 -24 12 -31 5 -11
3 -11 -14 -1 -12 7 -19 16 -16 20 2 4 -3 13 -12 20 -12 10 -44 71 -44 84 0 1
18 -3 39 -8 34 -9 38 -13 30 -29z m1811 20 c0 -92 -90 -204 -114 -142 -12 32
-5 52 37 107 44 59 77 74 77 35z m72 14 c15 -6 16 -11 5 -32 -7 -14 -20 -26
-30 -28 -13 -3 -17 4 -17 32 0 36 8 41 42 28z m-1664 -20 c3 -11 0 -12 -16 -3
-29 16 -32 14 -32 -17 0 -22 -7 -32 -27 -41 l-28 -13 28 -20 c15 -11 27 -27
27 -36 0 -10 4 -23 9 -31 8 -12 12 -12 25 -2 9 8 16 9 16 3 0 -12 -44 -42 -63
-42 -8 0 -26 9 -40 20 -14 11 -32 20 -41 20 -9 0 -19 12 -22 28 -4 15 -16 43
-28 63 -24 43 -14 63 38 78 46 14 148 9 154 -7z m147 8 c3 -5 1 -10 -4 -10 -6
0 -11 5 -11 10 0 6 2 10 4 10 3 0 8 -4 11 -10z m1130 -12 c-10 -33 -43 -85
-58 -91 -40 -14 -51 37 -14 70 24 22 57 42 70 43 5 0 5 -10 2 -22z m-955 0
c17 -1 40 -17 40 -28 0 -8 -94 5 -110 15 -23 14 -9 27 23 21 17 -3 39 -7 47
-8z m245 2 c3 -5 2 -10 -4 -10 -5 0 -13 5 -16 10 -3 6 -2 10 4 10 5 0 13 -4
16 -10z m380 0 c-3 -5 -2 -10 3 -10 6 0 12 -7 15 -14 4 -11 1 -13 -10 -9 -10
4 -14 2 -10 -4 4 -6 0 -14 -8 -17 -13 -4 -13 -2 -5 14 6 10 10 23 9 27 -2 13
1 23 7 23 3 0 2 -4 -1 -10z m-767 -14 c-10 -7 -15 -16 -11 -19 3 -4 12 -2 20
4 9 9 13 8 13 0 0 -18 -31 -26 -41 -10 -13 20 -11 27 9 32 27 7 28 7 10 -7z
m486 -38 c3 -16 2 -28 -3 -28 -9 0 -31 52 -31 74 0 19 27 -18 34 -46z m-674
27 c10 -13 10 -19 -3 -33 -12 -13 -15 -30 -12 -57 l5 -40 -13 33 c-7 18 -19
37 -26 41 -10 7 -8 10 9 16 17 5 20 12 16 31 -7 27 5 32 24 9z m51 1 c5 3 9 1
9 -5 0 -5 -4 -13 -10 -16 -5 -3 -10 -4 -10 -1 0 2 -2 10 -3 18 -2 7 -2 10 0 5
3 -4 9 -5 14 -1z m76 -2 c-4 9 -2 16 3 16 6 0 10 -14 10 -32 l0 -31 -27 24
c-16 13 -32 28 -38 32 -5 5 5 2 24 -8 30 -15 33 -15 28 -1z m1043 -21 c-15
-53 -22 -63 -47 -69 -30 -8 -57 15 -47 40 6 17 68 55 91 56 8 0 9 -8 3 -27z
m-544 0 c-4 -9 -1 -20 6 -24 7 -4 9 -11 5 -16 -5 -4 -12 -1 -17 7 -7 11 -11
11 -24 1 -13 -11 -19 -11 -31 -1 -9 7 -13 15 -10 18 2 3 11 0 18 -7 11 -9 18
-6 33 14 22 29 29 32 20 8z m93 -5 c10 -26 6 -38 -13 -38 -14 0 -28 45 -18 55
11 11 23 4 31 -17z m89 -12 l-4 -34 81 -7 c100 -8 255 -36 255 -46 0 -4 -15
-3 -32 2 -48 13 -48 13 -48 -36 0 -38 4 -47 23 -54 16 -6 24 -4 29 8 5 12 7
10 7 -8 1 -18 -3 -22 -16 -16 -10 3 -56 16 -103 28 -115 28 -418 31 -524 4
-38 -10 -71 -15 -73 -13 -3 2 9 7 26 11 28 6 31 10 31 47 0 40 0 40 -32 34
-26 -4 -29 -3 -16 5 22 12 213 39 284 39 50 0 51 0 46 30 -3 23 0 30 12 30 9
0 16 -8 17 -17 0 -14 2 -15 6 -3 5 13 22 29 32 30 2 0 1 -15 -1 -34z m-716 7
c8 -10 18 -26 21 -35 5 -14 1 -16 -29 -11 -22 4 -34 2 -34 -6 0 -6 11 -11 24
-11 26 0 40 -13 51 -48 6 -21 4 -22 -19 -16 -35 8 -33 -9 2 -23 23 -9 24 -11
9 -18 -21 -9 -55 0 -82 21 -19 15 -19 16 -2 29 18 13 18 15 -7 51 -27 40 -26
54 4 54 10 0 20 7 24 15 7 20 20 19 38 -2z m193 7 c3 -5 18 -7 34 -4 29 6 61
-15 61 -41 0 -8 8 -19 18 -25 14 -9 11 -10 -16 -7 -27 3 -36 -1 -44 -18 -7
-16 -16 -20 -42 -17 -46 5 -54 -14 -21 -48 17 -17 23 -30 16 -34 -6 -4 -11
-14 -11 -22 0 -19 54 -19 70 1 7 8 16 12 21 9 14 -8 10 -34 -5 -34 -7 0 -25
-9 -39 -20 -32 -25 -48 -25 -100 1 -66 33 -77 47 -77 95 0 24 -5 54 -11 68
-16 33 10 76 46 76 13 0 30 7 37 15 15 16 54 20 63 5z m161 -47 c-10 -10 -44
9 -49 27 -8 31 6 33 31 5 13 -15 21 -29 18 -32z m469 37 c13 -14 22 -17 29
-10 5 5 21 9 36 9 20 -1 21 -2 5 -6 -11 -3 -25 -9 -32 -15 -13 -11 -42 1 -63
26 -19 24 4 19 25 -4z m498 12 c14 -6 6 -14 -39 -42 -58 -35 -85 -34 -92 4 -6
30 84 56 131 38z m332 -33 c-70 -72 -155 -103 -155 -56 0 35 33 59 108 78 91
24 91 24 47 -22z m-1211 5 c9 -22 8 -26 -6 -22 -13 5 -20 38 -8 38 4 0 11 -7
14 -16z m361 -4 c3 -5 -1 -10 -9 -10 -9 0 -16 5 -16 10 0 6 4 10 9 10 6 0 13
-4 16 -10z m-400 -10 c3 -5 -1 -10 -10 -10 -9 0 -13 5 -10 10 3 6 8 10 10 10
2 0 7 -4 10 -10z m505 0 c0 -5 -7 -10 -16 -10 -8 0 -12 5 -9 10 3 6 10 10 16
10 5 0 9 -4 9 -10z m50 -10 c0 -5 -9 -6 -20 -3 -11 3 -17 9 -15 14 7 10 35 1
35 -11z m396 -42 c-16 -69 -49 -118 -81 -118 -28 0 -39 24 -23 53 12 24 109
129 114 124 2 -1 -3 -28 -10 -59z m-151 -23 c-61 -50 -135 -53 -135 -6 0 28 9
31 89 31 l76 -1 -30 -24z m-898 -32 c-3 -10 -5 -4 -5 12 0 17 2 24 5 18 2 -7
2 -21 0 -30z m-42 -43 c-17 -19 -55 -33 -55 -21 0 4 6 13 12 19 10 10 6 18
-17 38 l-30 25 42 -5 c28 -4 44 -2 50 6 5 9 9 3 11 -15 2 -17 -3 -36 -13 -47z
m772 38 c-3 -7 -5 -2 -5 12 0 14 2 19 5 13 2 -7 2 -19 0 -25z m174 -46 c-22
-42 -83 -102 -106 -102 -28 0 -45 13 -45 34 0 33 11 43 82 74 36 17 69 36 74
43 18 30 14 -12 -5 -49z m319 33 c-13 -14 -48 -37 -77 -52 -46 -22 -58 -24
-79 -14 -20 9 -25 17 -22 39 4 34 47 51 137 51 l64 1 -23 -25z m-1622 -16
c-32 -18 -19 -26 35 -22 38 3 48 2 37 -6 -20 -14 -86 -14 -111 0 -27 14 -7 39
30 39 22 -1 24 -2 9 -11z m862 1 c92 -10 177 -28 231 -48 26 -10 26 -11 16
-69 -6 -32 -11 -59 -12 -61 -1 -1 -22 5 -46 14 -134 48 -372 59 -539 24 -52
-10 -95 -18 -97 -17 -1 2 -4 30 -5 62 l-3 59 55 13 c121 28 267 37 400 23z
m-724 -52 c4 -7 4 -10 -1 -6 -4 4 -14 3 -22 -3 -16 -14 0 -39 26 -39 14 0 14
2 1 10 -27 18 15 12 72 -10 63 -24 97 -25 124 -5 10 8 24 15 31 15 14 0 23
-110 10 -127 -15 -20 -29 -15 -17 6 18 34 11 43 -16 22 -35 -27 -44 -26 -44 3
0 24 -1 24 -27 10 -35 -18 -52 -18 -94 0 -28 12 -31 16 -16 21 19 8 23 25 5
25 -6 0 -26 12 -45 26 -33 25 -34 27 -17 45 20 22 21 23 30 7z m-80 -33 c14
-13 13 -15 -4 -15 -11 0 -25 7 -32 15 -10 12 -9 15 4 15 10 0 24 -7 32 -15z
m1409 6 c17 -7 15 -11 -21 -34 -56 -35 -115 -50 -148 -37 -30 11 -33 26 -10
58 13 19 24 22 87 21 40 0 81 -4 92 -8z m-520 -77 c39 -8 87 -20 108 -26 36
-11 37 -12 31 -47 -4 -20 -9 -39 -13 -43 -4 -5 -54 1 -111 12 -123 23 -239 25
-405 5 -66 -8 -123 -15 -127 -15 -5 0 -8 22 -8 48 l0 49 93 16 c50 10 112 19
137 21 71 5 218 -5 295 -20z m314 -24 l36 -18 -40 -16 c-81 -34 -163 -4 -120
44 22 25 64 21 124 -10z"/>
<path d="M1040 2489 c0 -5 5 -7 10 -4 6 3 10 8 10 11 0 2 -4 4 -10 4 -5 0 -10
-5 -10 -11z"/>
<path d="M2365 1532 c-12 -8 -14 -62 -3 -62 12 0 20 25 16 49 -2 11 -7 17 -13
13z"/>
<path d="M450 1501 c0 -16 5 -33 10 -36 6 -4 10 6 10 24 0 16 -4 33 -10 36 -6
4 -10 -6 -10 -24z"/>
<path d="M210 933 c1 -4 7 -19 15 -33 l14 -25 -3 30 c-2 16 -8 31 -15 33 -6 2
-11 0 -11 -5z"/>
<path d="M642 866 c6 -14 15 -26 20 -26 10 0 -7 36 -22 45 -6 4 -5 -5 2 -19z"/>
<path d="M2620 903 c0 -29 2 -29 19 5 10 18 9 22 -4 22 -10 0 -15 -9 -15 -27z"/>
<path d="M2190 865 c-10 -12 -10 -15 4 -15 9 0 16 7 16 15 0 8 -2 15 -4 15 -2
0 -9 -7 -16 -15z"/>
<path d="M1775 837 c-6 -7 -15 -19 -20 -27 -8 -13 -6 -13 8 -2 9 8 20 11 24 9
5 -3 9 3 9 14 0 22 -6 24 -21 6z"/>
<path d="M1430 520 c0 -5 5 -10 11 -10 5 0 7 5 4 10 -3 6 -8 10 -11 10 -2 0
-4 -4 -4 -10z"/>
<path d="M1011 273 c0 -5 4 -17 9 -28 8 -18 9 -17 9 8 1 15 -3 27 -9 27 -5 0
-10 -3 -9 -7z"/>
</g>
</svg>
